# Blender v2.70 (sub 0) OBJ File: ''
# www.blender.org
o sphere_smooth
v 0.000000 -1.000000 0.000000
v 0.723607 -0.447220 0.525725
v -0.276388 -0.447220 0.850649
v -0.894426 -0.447216 0.000000
v -0.276388 -0.447220 -0.850649
v 0.723607 -0.447220 -0.525725
v 0.276388 0.447220 0.850649
v -0.723607 0.447220 0.525725
v -0.723607 0.447220 -0.525725
v 0.276388 0.447220 -0.850649
v 0.894426 0.447216 0.000000
v 0.000000 1.000000 0.000000
v -0.162456 -0.850654 0.499995
v 0.425323 -0.850654 0.309011
v 0.262869 -0.525738 0.809012
v 0.850648 -0.525736 0.000000
v 0.425323 -0.850654 -0.309011
v -0.525730 -0.850652 0.000000
v -0.688189 -0.525736 0.499997
v -0.162456 -0.850654 -0.499995
v -0.688189 -0.525736 -0.499997
v 0.262869 -0.525738 -0.809012
v 0.951058 0.000000 0.309013
v 0.951058 0.000000 -0.309013
v 0.000000 0.000000 1.000000
v 0.587786 0.000000 0.809017
v -0.951058 0.000000 0.309013
v -0.587786 0.000000 0.809017
v -0.587786 0.000000 -0.809017
v -0.951058 0.000000 -0.309013
v 0.587786 0.000000 -0.809017
v 0.000000 0.000000 -1.000000
v 0.688189 0.525736 0.499997
v -0.262869 0.525738 0.809012
v -0.850648 0.525736 0.000000
v -0.262869 0.525738 -0.809012
v 0.688189 0.525736 -0.499997
v 0.162456 0.850654 0.499995
v 0.525730 0.850652 0.000000
v -0.425323 0.850654 0.309011
v -0.425323 0.850654 -0.309011
v 0.162456 0.850654 -0.499995
vt 0.000000 0.000000
vn 0.102381 -0.943523 0.315090
vn 0.700224 -0.661699 0.268032
vn -0.268034 -0.943523 0.194737
vn -0.268034 -0.943523 -0.194737
vn 0.102381 -0.943523 -0.315090
vn 0.904989 -0.330385 0.268032
vn 0.024747 -0.330386 0.943521
vn -0.889697 -0.330385 0.315095
vn -0.574602 -0.330388 -0.748784
vn 0.534576 -0.330387 -0.777865
vn 0.802609 -0.125627 0.583126
vn -0.306569 -0.125629 0.943522
vn -0.992077 -0.125628 0.000000
vn -0.306569 -0.125629 -0.943522
vn 0.802609 -0.125627 -0.583126
vn 0.408946 0.661698 0.628425
vn -0.471300 0.661698 0.583122
vn -0.700224 0.661699 -0.268032
vn 0.038530 0.661699 -0.748779
vn 0.724042 0.661695 -0.194736
vn -0.038531 -0.661699 0.748779
vn 0.187594 -0.794658 0.577345
vn 0.471300 -0.661699 0.583122
vn 0.700224 -0.661699 -0.268032
vn 0.607060 -0.794656 0.000000
vn 0.331305 -0.943524 0.000000
vn -0.724042 -0.661695 0.194736
vn -0.491120 -0.794657 0.356821
vn -0.408946 -0.661698 0.628425
vn -0.408946 -0.661698 -0.628425
vn -0.491120 -0.794657 -0.356821
vn -0.724042 -0.661695 -0.194736
vn 0.471300 -0.661699 -0.583122
vn 0.187594 -0.794658 -0.577345
vn -0.038531 -0.661699 -0.748779
vn 0.992077 0.125628 0.000000
vn 0.982246 -0.187598 0.000000
vn 0.904989 -0.330385 -0.268032
vn 0.306569 0.125629 0.943522
vn 0.303531 -0.187597 0.934171
vn 0.534576 -0.330386 0.777865
vn -0.802609 0.125627 0.583126
vn -0.794656 -0.187595 0.577348
vn -0.574602 -0.330388 0.748784
vn -0.802609 0.125627 -0.583126
vn -0.794656 -0.187595 -0.577348
vn -0.889697 -0.330385 -0.315095
vn 0.306569 0.125629 -0.943522
vn 0.303531 -0.187597 -0.934171
vn 0.024747 -0.330386 -0.943521
vn 0.574602 0.330388 0.748784
vn 0.794656 0.187595 0.577348
vn 0.889697 0.330385 0.315095
vn -0.534576 0.330386 0.777865
vn -0.303531 0.187597 0.934171
vn -0.024747 0.330386 0.943521
vn -0.904989 0.330385 -0.268032
vn -0.982246 0.187598 0.000000
vn -0.904989 0.330385 0.268032
vn -0.024747 0.330386 -0.943521
vn -0.303531 0.187597 -0.934171
vn -0.534576 0.330386 -0.777865
vn 0.889697 0.330385 -0.315095
vn 0.794656 0.187595 -0.577348
vn 0.574602 0.330388 -0.748784
vn 0.268034 0.943523 0.194737
vn 0.491119 0.794657 0.356821
vn 0.724042 0.661695 0.194736
vn -0.102381 0.943523 0.315090
vn -0.187594 0.794658 0.577345
vn 0.038530 0.661699 0.748779
vn -0.331305 0.943524 0.000000
vn -0.607060 0.794656 0.000000
vn -0.700224 0.661699 0.268032
vn -0.102381 0.943523 -0.315090
vn -0.187594 0.794658 -0.577345
vn -0.471300 0.661699 -0.583122
vn 0.268034 0.943523 -0.194737
vn 0.491119 0.794657 -0.356821
vn 0.408946 0.661699 -0.628425
s off
f 1/1/1 14/1/1 13/1/1
f 2/1/2 14/1/2 16/1/2
f 1/1/3 13/1/3 18/1/3
f 1/1/4 18/1/4 20/1/4
f 1/1/5 20/1/5 17/1/5
f 2/1/6 16/1/6 23/1/6
f 3/1/7 15/1/7 25/1/7
f 4/1/8 19/1/8 27/1/8
f 5/1/9 21/1/9 29/1/9
f 6/1/10 22/1/10 31/1/10
f 2/1/11 23/1/11 26/1/11
f 3/1/12 25/1/12 28/1/12
f 4/1/13 27/1/13 30/1/13
f 5/1/14 29/1/14 32/1/14
f 6/1/15 31/1/15 24/1/15
f 7/1/16 33/1/16 38/1/16
f 8/1/17 34/1/17 40/1/17
f 9/1/18 35/1/18 41/1/18
f 10/1/19 36/1/19 42/1/19
f 11/1/20 37/1/20 39/1/20
f 13/1/21 15/1/21 3/1/21
f 13/1/22 14/1/22 15/1/22
f 14/1/23 2/1/23 15/1/23
f 16/1/24 17/1/24 6/1/24
f 16/1/25 14/1/25 17/1/25
f 14/1/26 1/1/26 17/1/26
f 18/1/27 19/1/27 4/1/27
f 18/1/28 13/1/28 19/1/28
f 13/1/29 3/1/29 19/1/29
f 20/1/30 21/1/30 5/1/30
f 20/1/31 18/1/31 21/1/31
f 18/1/32 4/1/32 21/1/32
f 17/1/33 22/1/33 6/1/33
f 17/1/34 20/1/34 22/1/34
f 20/1/35 5/1/35 22/1/35
f 23/1/36 24/1/36 11/1/36
f 23/1/37 16/1/37 24/1/37
f 16/1/38 6/1/38 24/1/38
f 25/1/39 26/1/39 7/1/39
f 25/1/40 15/1/40 26/1/40
f 15/1/41 2/1/41 26/1/41
f 27/1/42 28/1/42 8/1/42
f 27/1/43 19/1/43 28/1/43
f 19/1/44 3/1/44 28/1/44
f 29/1/45 30/1/45 9/1/45
f 29/1/46 21/1/46 30/1/46
f 21/1/47 4/1/47 30/1/47
f 31/1/48 32/1/48 10/1/48
f 31/1/49 22/1/49 32/1/49
f 22/1/50 5/1/50 32/1/50
f 26/1/51 33/1/51 7/1/51
f 26/1/52 23/1/52 33/1/52
f 23/1/53 11/1/53 33/1/53
f 28/1/54 34/1/54 8/1/54
f 28/1/55 25/1/55 34/1/55
f 25/1/56 7/1/56 34/1/56
f 30/1/57 35/1/57 9/1/57
f 30/1/58 27/1/58 35/1/58
f 27/1/59 8/1/59 35/1/59
f 32/1/60 36/1/60 10/1/60
f 32/1/61 29/1/61 36/1/61
f 29/1/62 9/1/62 36/1/62
f 24/1/63 37/1/63 11/1/63
f 24/1/64 31/1/64 37/1/64
f 31/1/65 10/1/65 37/1/65
f 38/1/66 39/1/66 12/1/66
f 38/1/67 33/1/67 39/1/67
f 33/1/68 11/1/68 39/1/68
f 40/1/69 38/1/69 12/1/69
f 40/1/70 34/1/70 38/1/70
f 34/1/71 7/1/71 38/1/71
f 41/1/72 40/1/72 12/1/72
f 41/1/73 35/1/73 40/1/73
f 35/1/74 8/1/74 40/1/74
f 42/1/75 41/1/75 12/1/75
f 42/1/76 36/1/76 41/1/76
f 36/1/77 9/1/77 41/1/77
f 39/1/78 42/1/78 12/1/78
f 39/1/79 37/1/79 42/1/79
f 37/1/80 10/1/80 42/1/80
