# Blender v2.70 (sub 0) OBJ File: ''
# www.blender.org
o sphere_smooth
v 0.000000 -1.000000 0.000000
v 0.723607 -0.447220 0.525725
v -0.276388 -0.447220 0.850649
v -0.894426 -0.447216 0.000000
v -0.276388 -0.447220 -0.850649
v 0.723607 -0.447220 -0.525725
v 0.276388 0.447220 0.850649
v -0.723607 0.447220 0.525725
v -0.723607 0.447220 -0.525725
v 0.276388 0.447220 -0.850649
v 0.894426 0.447216 0.000000
v 0.000000 1.000000 0.000000
v -0.162456 -0.850654 0.499995
v 0.425323 -0.850654 0.309011
v 0.262869 -0.525738 0.809012
v 0.850648 -0.525736 0.000000
v 0.425323 -0.850654 -0.309011
v -0.525730 -0.850652 0.000000
v -0.688189 -0.525736 0.499997
v -0.162456 -0.850654 -0.499995
v -0.688189 -0.525736 -0.499997
v 0.262869 -0.525738 -0.809012
v 0.951058 0.000000 0.309013
v 0.951058 0.000000 -0.309013
v 0.000000 0.000000 1.000000
v 0.587786 0.000000 0.809017
v -0.951058 0.000000 0.309013
v -0.587786 0.000000 0.809017
v -0.587786 0.000000 -0.809017
v -0.951058 0.000000 -0.309013
v 0.587786 0.000000 -0.809017
v 0.000000 0.000000 -1.000000
v 0.688189 0.525736 0.499997
v -0.262869 0.525738 0.809012
v -0.850648 0.525736 0.000000
v -0.262869 0.525738 -0.809012
v 0.688189 0.525736 -0.499997
v 0.162456 0.850654 0.499995
v 0.525730 0.850652 0.000000
v -0.425323 0.850654 0.309011
v -0.425323 0.850654 -0.309011
v 0.162456 0.850654 -0.499995
vt 0.000000 0.000000
vn 0.000000 -1.000000 0.000000
vn 0.425306 -0.850642 0.309000
vn -0.162450 -0.850642 0.499985
vn 0.723594 -0.447188 0.525712
vn 0.850642 -0.525712 0.000000
vn -0.525712 -0.850642 0.000000
vn -0.162450 -0.850642 -0.499985
vn 0.425306 -0.850642 -0.309000
vn 0.951048 0.000000 0.309000
vn -0.276376 -0.447218 0.850642
vn 0.262856 -0.525712 0.808985
vn 0.000000 0.000000 1.000000
vn -0.894406 -0.447188 0.000000
vn -0.688162 -0.525712 0.499985
vn -0.951048 0.000000 0.309000
vn -0.276376 -0.447218 -0.850642
vn -0.688162 -0.525712 -0.499985
vn -0.587756 0.000000 -0.809015
vn 0.723594 -0.447188 -0.525712
vn 0.262856 -0.525712 -0.808985
vn 0.587756 0.000000 -0.809015
vn 0.587756 0.000000 0.809015
vn -0.587756 0.000000 0.809015
vn -0.951048 0.000000 -0.309000
vn 0.000000 0.000000 -1.000000
vn 0.951048 0.000000 -0.309000
vn 0.276376 0.447218 0.850642
vn 0.688162 0.525712 0.499985
vn 0.162450 0.850642 0.499985
vn -0.723594 0.447188 0.525712
vn -0.262856 0.525712 0.808985
vn -0.425306 0.850642 0.309000
vn -0.723594 0.447188 -0.525712
vn -0.850642 0.525712 0.000000
vn -0.425306 0.850642 -0.309000
vn 0.276376 0.447218 -0.850642
vn -0.262856 0.525712 -0.808985
vn 0.162450 0.850642 -0.499985
vn 0.894406 0.447188 0.000000
vn 0.688162 0.525712 -0.499985
vn 0.525712 0.850642 0.000000
vn 0.000000 1.000000 0.000000
s 1
f 1/1/1 14/1/2 13/1/3
f 2/1/4 14/1/2 16/1/5
f 1/1/1 13/1/3 18/1/6
f 1/1/1 18/1/6 20/1/7
f 1/1/1 20/1/7 17/1/8
f 2/1/4 16/1/5 23/1/9
f 3/1/10 15/1/11 25/1/12
f 4/1/13 19/1/14 27/1/15
f 5/1/16 21/1/17 29/1/18
f 6/1/19 22/1/20 31/1/21
f 2/1/4 23/1/9 26/1/22
f 3/1/10 25/1/12 28/1/23
f 4/1/13 27/1/15 30/1/24
f 5/1/16 29/1/18 32/1/25
f 6/1/19 31/1/21 24/1/26
f 7/1/27 33/1/28 38/1/29
f 8/1/30 34/1/31 40/1/32
f 9/1/33 35/1/34 41/1/35
f 10/1/36 36/1/37 42/1/38
f 11/1/39 37/1/40 39/1/41
f 13/1/3 15/1/11 3/1/10
f 13/1/3 14/1/2 15/1/11
f 14/1/2 2/1/4 15/1/11
f 16/1/5 17/1/8 6/1/19
f 16/1/5 14/1/2 17/1/8
f 14/1/2 1/1/1 17/1/8
f 18/1/6 19/1/14 4/1/13
f 18/1/6 13/1/3 19/1/14
f 13/1/3 3/1/10 19/1/14
f 20/1/7 21/1/17 5/1/16
f 20/1/7 18/1/6 21/1/17
f 18/1/6 4/1/13 21/1/17
f 17/1/8 22/1/20 6/1/19
f 17/1/8 20/1/7 22/1/20
f 20/1/7 5/1/16 22/1/20
f 23/1/9 24/1/26 11/1/39
f 23/1/9 16/1/5 24/1/26
f 16/1/5 6/1/19 24/1/26
f 25/1/12 26/1/22 7/1/27
f 25/1/12 15/1/11 26/1/22
f 15/1/11 2/1/4 26/1/22
f 27/1/15 28/1/23 8/1/30
f 27/1/15 19/1/14 28/1/23
f 19/1/14 3/1/10 28/1/23
f 29/1/18 30/1/24 9/1/33
f 29/1/18 21/1/17 30/1/24
f 21/1/17 4/1/13 30/1/24
f 31/1/21 32/1/25 10/1/36
f 31/1/21 22/1/20 32/1/25
f 22/1/20 5/1/16 32/1/25
f 26/1/22 33/1/28 7/1/27
f 26/1/22 23/1/9 33/1/28
f 23/1/9 11/1/39 33/1/28
f 28/1/23 34/1/31 8/1/30
f 28/1/23 25/1/12 34/1/31
f 25/1/12 7/1/27 34/1/31
f 30/1/24 35/1/34 9/1/33
f 30/1/24 27/1/15 35/1/34
f 27/1/15 8/1/30 35/1/34
f 32/1/25 36/1/37 10/1/36
f 32/1/25 29/1/18 36/1/37
f 29/1/18 9/1/33 36/1/37
f 24/1/26 37/1/40 11/1/39
f 24/1/26 31/1/21 37/1/40
f 31/1/21 10/1/36 37/1/40
f 38/1/29 39/1/41 12/1/42
f 38/1/29 33/1/28 39/1/41
f 33/1/28 11/1/39 39/1/41
f 40/1/32 38/1/29 12/1/42
f 40/1/32 34/1/31 38/1/29
f 34/1/31 7/1/27 38/1/29
f 41/1/35 40/1/32 12/1/42
f 41/1/35 35/1/34 40/1/32
f 35/1/34 8/1/30 40/1/32
f 42/1/38 41/1/35 12/1/42
f 42/1/38 36/1/37 41/1/35
f 36/1/37 9/1/33 41/1/35
f 39/1/41 42/1/38 12/1/42
f 39/1/41 37/1/40 42/1/38
f 37/1/40 10/1/36 42/1/38
